<svg width="24" height="23" viewBox="0 0 24 23" fill="none" xmlns="http://www.w3.org/2000/svg">
<path fill-rule="evenodd" clip-rule="evenodd" d="M12.1567 19.2351C11.8654 19.0819 11.5174 19.0819 11.2261 19.2351L5.54977 22.2193C4.81614 22.605 3.95871 21.982 4.09882 21.1651L5.18289 14.8445C5.23853 14.5201 5.13098 14.1891 4.89529 13.9593L0.303081 9.48304C-0.290436 8.90451 0.0370739 7.89654 0.857294 7.77735L7.20358 6.85518C7.52929 6.80785 7.81085 6.60328 7.95651 6.30814L10.7947 0.557435C11.1615 -0.185811 12.2213 -0.185812 12.5881 0.557434L15.4263 6.30814C15.5719 6.60328 15.8535 6.80785 16.1792 6.85518L22.5255 7.77735C23.3457 7.89654 23.6732 8.90451 23.0797 9.48304L18.4875 13.9593C18.2518 14.1891 18.1443 14.5201 18.1999 14.8445L19.284 21.1651C19.4241 21.982 18.5667 22.605 17.833 22.2193L12.1567 19.2351Z" fill="#D7D7E2"/>
</svg>
